<?xml version="1.0" standalone="no"?>
<!DOCTYPE svg PUBLIC "-//W3C//DTD SVG 20010904//EN"
 "http://www.w3.org/TR/2001/REC-SVG-20010904/DTD/svg10.dtd">
<svg version="1.0" xmlns="http://www.w3.org/2000/svg"
 width="1844.000000pt" height="275.000000pt" viewBox="0 0 1844.000000 275.000000"
 preserveAspectRatio="xMidYMid meet">

<g transform="translate(0.000000,275.000000) scale(0.100000,-0.100000)"
fill="#000000" stroke="none">
<path d="M0 1369 l0 -1359 9220 0 9220 0 0 1360 0 1359 -27 -4 c-16 -3 -152
-19 -303 -35 -871 -97 -1721 -232 -2365 -376 -1032 -232 -1839 -532 -2708
-1008 -339 -185 -856 -456 -1082 -567 -1008 -492 -1825 -709 -2681 -710 -688
0 -1388 128 -1992 366 -237 94 -472 206 -1297 620 -966 485 -1333 655 -1825
847 -529 207 -927 331 -1430 447 -676 156 -1336 262 -2345 375 -171 20 -327
37 -347 40 l-38 4 0 -1359z"/>
</g>
</svg>
